<?xml version="1.0" encoding="UTF-8" standalone="no"?><!DOCTYPE svg PUBLIC "-//W3C//DTD SVG 1.1//EN" "http://www.w3.org/Graphics/SVG/1.1/DTD/svg11.dtd"><svg width="100%" height="100%" viewBox="0 0 3485 671" version="1.1" xmlns="http://www.w3.org/2000/svg" xmlns:xlink="http://www.w3.org/1999/xlink" xml:space="preserve" xmlns:serif="http://www.serif.com/" style="fill-rule:evenodd;clip-rule:evenodd;stroke-linejoin:round;stroke-miterlimit:2;"><g><path d="M1263.905,430.767l0,67.139c-44.759,24.414 -96.436,36.621 -155.029,36.621c-47.607,0 -87.992,-9.562 -121.155,-28.687c-33.162,-19.124 -59.408,-45.471 -78.735,-79.041c-19.328,-33.569 -28.992,-69.885 -28.992,-108.948c0,-62.052 22.125,-114.237 66.376,-156.555c44.25,-42.318 98.826,-63.477 163.727,-63.477c44.759,0 94.503,11.698 149.231,35.095l0,65.613c-49.845,-28.483 -98.572,-42.725 -146.179,-42.725c-48.828,0 -89.366,15.411 -121.613,46.234c-32.247,30.823 -48.37,69.427 -48.37,115.814c0,46.794 15.869,85.246 47.607,115.356c31.738,30.111 72.327,45.166 121.765,45.166c51.676,0 102.132,-15.869 151.367,-47.607Z" style="fill:#004e54;fill-rule:nonzero;"/><rect x="1332.57" y="103.313" width="55.542" height="426.331" style="fill:#004e54;fill-rule:nonzero;"/><path d="M1497.059,130.779c9.155,0 16.988,3.153 23.499,9.46c6.51,6.307 9.766,14.038 9.766,23.193c0,8.952 -3.255,16.683 -9.766,23.193c-6.51,6.51 -14.343,9.766 -23.499,9.766c-8.545,0 -16.073,-3.306 -22.583,-9.918c-6.51,-6.612 -9.766,-14.292 -9.766,-23.041c0,-8.545 3.255,-16.123 9.766,-22.736c6.51,-6.612 14.038,-9.918 22.583,-9.918Zm-27.466,118.103l55.542,0l0,280.762l-55.542,0l0,-280.762Z" style="fill:#004e54;fill-rule:nonzero;"/><path d="M1844.655,394.146l-197.449,0c1.424,26.855 10.427,48.218 27.008,64.087c16.581,15.869 37.994,23.804 64.24,23.804c36.621,0 70.394,-11.393 101.318,-34.18l0,54.321c-17.09,11.393 -34.027,19.531 -50.812,24.414c-16.785,4.883 -36.469,7.324 -59.052,7.324c-30.924,0 -55.949,-6.409 -75.073,-19.226c-19.124,-12.817 -34.434,-30.06 -45.929,-51.727c-11.495,-21.667 -17.242,-46.743 -17.242,-75.226c0,-42.725 12.105,-77.464 36.316,-104.218c24.211,-26.754 55.644,-40.131 94.299,-40.131c37.231,0 66.935,13.021 89.111,39.062c22.176,26.042 33.264,60.933 33.264,104.675l0,7.019Zm-196.228,-33.264l141.296,0c-1.424,-22.176 -8.036,-39.266 -19.836,-51.27c-11.8,-12.004 -27.669,-18.005 -47.607,-18.005c-19.938,0 -36.265,6.002 -48.981,18.005c-12.716,12.004 -21.006,29.093 -24.872,51.27Z" style="fill:#004e54;fill-rule:nonzero;"/><path d="M1960.316,248.882l0,35.706c24.821,-27.466 52.999,-41.199 84.534,-41.199c17.497,0 33.773,4.527 48.828,13.58c15.055,9.054 26.499,21.464 34.332,37.231c7.833,15.767 11.749,40.741 11.749,74.921l0,160.522l-55.542,0l0,-159.912c0,-28.687 -4.374,-49.184 -13.123,-61.493c-8.748,-12.309 -23.397,-18.463 -43.945,-18.463c-26.245,0 -48.523,13.123 -66.833,39.368l0,200.5l-56.763,0l0,-280.762l56.763,0Z" style="fill:#004e54;fill-rule:nonzero;"/><path d="M2177.907,293.438l104.37,-102.539l0,57.983l88.806,0l0,50.049l-88.806,0l0,137.41c0,32.091 13.326,48.137 39.978,48.137c19.938,0 40.995,-6.612 63.171,-19.836l0,51.88c-21.362,12.004 -44.657,18.005 -69.885,18.005c-25.431,0 -46.59,-7.426 -63.477,-22.278c-5.29,-4.476 -9.664,-9.511 -13.123,-15.106c-3.459,-5.595 -6.358,-12.919 -8.698,-21.973c-2.34,-9.054 -3.51,-26.296 -3.51,-51.727l0,-124.512l-48.828,0l0,-5.493Z" style="fill:#004e54;fill-rule:nonzero;"/><path d="M2422.963,103.313l55.542,0l0,165.71c24.007,-17.497 49.642,-26.245 76.904,-26.245c35.604,0 64.697,13.428 87.28,40.283c22.583,26.855 33.875,61.34 33.875,103.455c0,45.166 -13.479,81.126 -40.436,107.88c-26.957,26.754 -63.019,40.131 -108.185,40.131c-18.107,0 -37.181,-1.933 -57.22,-5.798c-20.04,-3.866 -35.96,-8.748 -47.76,-14.648l0,-410.767Zm55.542,218.811l0,151.978c18.921,5.697 38.35,8.545 58.289,8.545c24.618,0 44.708,-8.748 60.272,-26.245c15.564,-17.497 23.346,-39.978 23.346,-67.444c0,-27.873 -7.273,-50.557 -21.82,-68.054c-14.547,-17.497 -33.518,-26.245 -56.915,-26.245c-20.752,0 -41.809,9.155 -63.171,27.466Z" style="fill:#004e54;fill-rule:nonzero;"/><path d="M2914.296,360.882l0,119.324c0,9.562 3.255,14.343 9.766,14.343c6.714,0 17.192,-4.985 31.433,-14.954l0,33.875c-12.614,8.138 -22.736,13.682 -30.365,16.632c-7.629,2.95 -15.615,4.425 -23.956,4.425c-23.804,0 -37.842,-9.359 -42.114,-28.076c-23.6,18.311 -48.726,27.466 -75.378,27.466c-19.531,0 -35.807,-6.46 -48.828,-19.379c-13.021,-12.919 -19.531,-29.144 -19.531,-48.676c0,-17.7 6.358,-33.518 19.073,-47.455c12.716,-13.936 30.772,-24.974 54.169,-33.112l71.106,-24.414l0,-14.954c0,-33.773 -16.886,-50.659 -50.659,-50.659c-30.314,0 -59.814,15.666 -88.501,46.997l0,-60.73c21.566,-25.431 52.592,-38.147 93.079,-38.147c30.314,0 54.626,7.935 72.937,23.804c6.104,5.086 11.597,11.851 16.479,20.294c4.883,8.443 7.985,16.886 9.308,25.33c1.322,8.443 1.984,24.465 1.984,48.065Zm-54.626,113.22l0,-83.313l-37.231,14.343c-18.921,7.528 -32.298,15.106 -40.131,22.736c-7.833,7.629 -11.749,17.141 -11.749,28.534c0,11.597 3.713,21.057 11.139,28.381c7.426,7.324 17.039,10.986 28.839,10.986c17.7,0 34.078,-7.222 49.133,-21.667Z" style="fill:#004e54;fill-rule:nonzero;"/><path d="M2990.895,509.502l0,-59.814c15.666,10.986 31.687,19.887 48.065,26.703c16.378,6.816 30.162,10.223 41.351,10.223c11.597,0 21.566,-2.848 29.907,-8.545c8.341,-5.697 12.512,-12.512 12.512,-20.447c0,-8.138 -2.696,-14.903 -8.087,-20.294c-5.391,-5.391 -17.039,-13.173 -34.943,-23.346c-35.807,-19.938 -59.255,-36.977 -70.343,-51.117c-11.088,-14.14 -16.632,-29.551 -16.632,-46.234c0,-21.566 8.392,-39.164 25.177,-52.795c16.785,-13.631 38.401,-20.447 64.85,-20.447c27.466,0 55.644,7.731 84.534,23.193l0,54.932c-32.959,-19.938 -59.916,-29.907 -80.872,-29.907c-10.783,0 -19.48,2.292 -26.093,6.876c-6.612,4.581 -9.918,10.64 -9.918,18.177c0,6.52 3.001,12.733 9.003,18.64c6.002,5.906 16.53,13.024 31.586,21.353l19.836,11.277c46.794,26.445 70.19,55.737 70.19,87.876c0,22.987 -9.003,41.854 -27.008,56.601c-18.005,14.747 -41.148,22.12 -69.427,22.12c-16.683,0 -31.535,-1.78 -44.556,-5.341c-13.021,-3.56 -29.399,-10.122 -49.133,-19.684Z" style="fill:#004e54;fill-rule:nonzero;"/><path d="M3484.364,394.146l-197.449,0c1.424,26.855 10.427,48.218 27.008,64.087c16.581,15.869 37.994,23.804 64.24,23.804c36.621,0 70.394,-11.393 101.318,-34.18l0,54.321c-17.09,11.393 -34.027,19.531 -50.812,24.414c-16.785,4.883 -36.469,7.324 -59.052,7.324c-30.924,0 -55.949,-6.409 -75.073,-19.226c-19.124,-12.817 -34.434,-30.06 -45.929,-51.727c-11.495,-21.667 -17.242,-46.743 -17.242,-75.226c0,-42.725 12.105,-77.464 36.316,-104.218c24.211,-26.754 55.644,-40.131 94.299,-40.131c37.231,0 66.935,13.021 89.111,39.062c22.176,26.042 33.264,60.933 33.264,104.675l0,7.019Zm-196.228,-33.264l141.296,0c-1.424,-22.176 -8.036,-39.266 -19.836,-51.27c-11.8,-12.004 -27.669,-18.005 -47.607,-18.005c-19.938,0 -36.265,6.002 -48.981,18.005c-12.716,12.004 -21.006,29.093 -24.872,51.27Z" style="fill:#004e54;fill-rule:nonzero;"/></g><g><path d="M764.522,356.973l61.531,27.932l-333.435,285.633l-492.618,-223.621l61.531,-52.71l431.087,195.689l271.903,-232.923Z" style="fill:#004e54;"/></g><path d="M492.618,509.254l-492.618,-223.621l333.435,-285.633l492.618,223.621l-333.435,285.633Z" style="fill:#004e54;"/></svg>